:SAMPLES-PER-SECOND 30
:FULLY-SPECIFIED
:DEGREES
246
root  -12.5789 40.7778 -7.02847 -45.4075 -86.0504 42.0524
RightUpLeg  -0.679739 -11.821 -14.8186
RightLeg  4.38819 -2.87328 1.61192
RightFoot  2.9098 -0.859693 7.02758
RightToes  0.00048216 0.542163 -0.142577
Spine  -0.847893 0.245435 6.65445
Spine1  23.0274 3.3981 -8.19345
HEad  -11.7732 6.91118 -16.7802
LeftShoulder1  9.60998 -15.2193 -44.715
LeftArm  -59.1047 26.2021 -12.9363
LeftForeArm  92.883 -65.0615 -151.657
LeftHand  -0.25398 0.0180481 5.50724
RightShoulder  6.29007 10.4107 39.1125
RightArm  -50.0491 -15.5546 29.5955
RightForeArm  70.8402 63.6668 152.641
RightHand  -1.24733 4.79199 -14.5116
LeftUpLeg  0.540681 4.48711 -0.878345
LeftLeg  6.53133 8.48242 -3.64562
LeftFoot  -3.95443 -0.107954 2.05336
LeftToes  1.06246e-005 4.65855e-005 -8.18503e-006
247
root  -12.5422 40.7537 -6.77308 -47.5928 -86.1009 44.2258
RightUpLeg  -0.72319 -11.9855 -15.2458
RightLeg  4.27356 -2.58613 1.53584
RightFoot  3.20809 -0.910908 7.29814
RightToes  0.00048216 0.542163 -0.142577
Spine  -0.839411 0.318703 6.74974
Spine1  23.0162 3.48339 -8.22065
HEad  -12.1135 6.64026 -16.0183
LeftShoulder1  9.65973 -15.2458 -44.8905
LeftArm  -58.4714 26.2974 -12.9173
LeftForeArm  92.5041 -65.3053 -151.321
LeftHand  -0.25398 0.0180481 5.50724
RightShoulder  6.30422 10.4147 39.1971
RightArm  -50.117 -15.8845 29.4643
RightForeArm  70.3406 64.0371 152.176
RightHand  -1.21826 4.44419 -14.6559
LeftUpLeg  0.403516 4.51596 -1.33612
LeftLeg  6.76644 8.71619 -3.70511
LeftFoot  -4.06906 -0.136462 2.53085
LeftToes  1.06246e-005 4.65855e-005 -8.18503e-006
248
root  -12.5027 40.7255 -6.54521 -50.1585 -86.2076 46.7814
RightUpLeg  -0.798721 -12.1512 -15.6075
RightLeg  4.17954 -2.28371 1.50015
RightFoot  3.47115 -0.959919 7.55699
RightToes  0.00048216 0.542163 -0.142577
Spine  -0.795976 0.386308 6.89029
Spine1  22.9772 3.58311 -8.30884
HEad  -12.4771 6.42924 -15.052
LeftShoulder1  9.72158 -15.2737 -45.1202
LeftArm  -57.9169 26.3507 -12.737
LeftForeArm  91.9876 -65.5754 -150.933
LeftHand  -0.25398 0.0180481 5.50724
RightShoulder  6.31624 10.4365 39.2118
RightArm  -49.7776 -16.1245 29.5579
RightForeArm  69.7972 64.5008 151.574
RightHand  -1.26439 4.6289 -14.9266
LeftUpLeg  0.199517 4.59039 -1.74764
LeftLeg  7.12623 8.96871 -3.66475
LeftFoot  -4.23954 -0.153208 2.88083
LeftToes  1.06246e-005 4.65855e-005 -8.18503e-006
249
root  -12.4581 40.6917 -6.34236 -53.7721 -86.379 50.359
RightUpLeg  -0.899584 -12.272 -15.9054
RightLeg  4.13154 -1.85282 1.46088
RightFoot  3.62736 -1.00273 7.8103
RightToes  0.00048216 0.542163 -0.142577
Spine  -0.649449 0.43927 7.1273
Spine1  22.8636 3.72759 -8.56092
HEad  -12.8752 6.18034 -13.8764
LeftShoulder1  9.75825 -15.3192 -45.1833
LeftArm  -57.4269 26.5457 -12.6656
LeftForeArm  92.435 -65.9829 -150.404
LeftHand  -0.25398 0.0180481 5.50724
RightShoulder  6.33804 10.5295 39.0735
RightArm  -48.9404 -16.5011 29.8235
RightForeArm  70.0834 65.2889 150.506
RightHand  -1.35763 5.26395 -15.0883
LeftUpLeg  -0.0280588 4.76996 -2.08955
LeftLeg  7.59256 9.18889 -3.58652
LeftFoot  -4.49005 -0.162311 3.16359
LeftToes  1.06246e-005 4.65855e-005 -8.18503e-006
250
root  -12.4163 40.6564 -6.16729 -60.549 -86.6345 57.0618
RightUpLeg  -1.08094 -12.3522 -16.1552
RightLeg  4.22803 -1.13939 1.4151
RightFoot  3.61352 -1.03122 8.03295
RightToes  0.00048216 0.542163 -0.142577
Spine  -0.351699 0.529269 7.37289
Spine1  22.5626 3.9334 -8.88211
HEad  -13.3126 5.85547 -12.4354
LeftShoulder1  9.6983 -15.317 -44.8993
LeftArm  -55.7292 27.0526 -12.5504
LeftForeArm  94.7437 -66.4881 -149.839
LeftHand  -0.25398 0.0180481 5.50724
RightShoulder  6.36368 10.6801 38.7879
RightArm  -47.1427 -17.1912 29.7842
RightForeArm  71.2211 66.7529 148.328
RightHand  -1.36233 5.27223 -15.1355
LeftUpLeg  -0.173165 5.04327 -2.3403
LeftLeg  8.0196 9.47744 -3.56255
LeftFoot  -4.78396 -0.165734 3.3959
LeftToes  1.06246e-005 4.65855e-005 -8.18503e-006
251
root  -12.3898 40.6253 -6.02708 -72.2114 -86.9184 68.6582
RightUpLeg  -1.3812 -12.4307 -16.3425
RightLeg  4.47268 -0.165077 1.40458
RightFoot  3.40717 -1.04886 8.27119
RightToes  0.00048216 0.542163 -0.142577
Spine  0.0575768 0.690219 7.49269
Spine1  21.9369 4.15252 -9.09926
HEad  -13.6783 5.61167 -10.6672
LeftShoulder1  9.50768 -15.1714 -44.3349
LeftArm  -50.8849 27.8895 -11.5244
LeftForeArm  98.8758 -67.1145 -149.219
LeftHand  -0.25398 0.0180481 5.50724
RightShoulder  6.33952 10.7906 38.293
RightArm  -43.2149 -18.2278 28.9155
RightForeArm  71.6485 68.9296 144.452
RightHand  -1.42718 4.96673 -16.2503
LeftUpLeg  -0.225651 5.2741 -2.4978
LeftLeg  8.31589 10.0084 -3.59393
LeftFoot  -5.07792 -0.162662 3.53156
LeftToes  1.06246e-005 4.65855e-005 -8.18503e-006
252
root  -12.389 40.5986 -5.92598 -87.7682 -87.1026 84.2137
RightUpLeg  -1.74492 -12.506 -16.4241
RightLeg  4.75713 0.750786 1.42971
RightFoot  2.97137 -1.06584 8.63672
RightToes  0.00048216 0.542163 -0.142577
Spine  0.41523 0.896089 7.43905
Spine1  21.054 4.32169 -9.16065
HEad  -13.8683 5.46909 -8.58428
LeftShoulder1  9.23312 -14.9089 -43.6342
LeftArm  -41.9567 28.8525 -8.87104
LeftForeArm  105.299 -68.1674 -148.141
LeftHand  -0.25398 0.0180481 5.50724
RightShoulder  6.192 10.7741 37.3453
RightArm  -35.9454 -19.5392 27.0339
RightForeArm  69.2143 71.5785 138.133
RightHand  -1.81671 5.5646 -19.3941
LeftUpLeg  -0.284182 5.39248 -2.55484
LeftLeg  8.56939 10.738 -3.621
LeftFoot  -5.393 -0.15111 3.53293
LeftToes  1.06246e-005 4.65855e-005 -8.18503e-006
253
root  -12.4182 40.575 -5.85959 -102.797 -87.1279 99.2869
RightUpLeg  -2.04582 -12.5544 -16.4082
RightLeg  5.04098 1.12317 1.43643
RightFoot  2.29521 -1.07111 9.07231
RightToes  0.00048216 0.542163 -0.142577
Spine  0.553169 1.10499 7.25374
Spine1  20.2302 4.42194 -9.08421
HEad  -13.9943 5.08595 -6.19821
LeftShoulder1  8.96544 -14.7074 -42.791
LeftArm  -29.6358 29.5625 -4.90191
LeftForeArm  115.693 -69.6198 -146.833
LeftHand  -0.25398 0.0180481 5.50724
RightShoulder  5.90885 10.6298 35.8268
RightArm  -25.184 -21.0012 24.1214
RightForeArm  64.723 74.2039 128.911
RightHand  -2.27725 6.19843 -22.9759
LeftUpLeg  -0.373621 5.47228 -2.50833
LeftLeg  8.87695 11.3747 -3.61104
LeftFoot  -5.75759 -0.131375 3.40425
LeftToes  1.06246e-005 4.65855e-005 -8.18503e-006
254
root  -12.4756 40.5619 -5.82015 -113.451 -87.0868 109.94
RightUpLeg  -2.14584 -12.6104 -16.3722
RightLeg  5.34133 0.689563 1.39978
RightFoot  1.5715 -1.04659 9.32262
RightToes  0.00048216 0.542163 -0.142577
Spine  0.462393 1.3035 6.9888
Spine1  19.7215 4.45708 -8.80095
HEad  -14.288 4.13498 -3.51385
LeftShoulder1  8.76462 -14.7135 -41.751
LeftArm  -15.4291 29.7326 -0.605074
LeftForeArm  132.619 -70.6367 -147.255
LeftHand  -0.25398 0.0180481 5.50724
RightShoulder  5.56655 10.4184 34.0332
RightArm  -12.0981 -22.4489 20.1124
RightForeArm  65.5332 76.0847 119.564
RightHand  -2.06819 4.69366 -23.8039
LeftUpLeg  -0.341959 5.55699 -2.38126
LeftLeg  9.11713 11.7257 -3.59001
LeftFoot  -6.10576 -0.109036 3.18891
LeftToes  1.06246e-005 4.65855e-005 -8.18503e-006
255
root  -12.5571 40.5635 -5.80988 -120.047 -87.0533 116.414
RightUpLeg  -1.99621 -12.7307 -16.3924
RightLeg  5.65444 -0.265687 1.36173
RightFoot  1.10916 -1.00627 9.275
RightToes  0.00048216 0.542163 -0.142577
Spine  0.276805 1.47947 6.62643
Spine1  19.4781 4.40814 -8.25343
HEad  -14.7553 2.73435 -0.7047
LeftShoulder1  8.63445 -14.9077 -40.6109
LeftArm  -0.875176 29.5005 3.32199
LeftForeArm  158.589 -70.2622 -151.437
LeftHand  -0.25398 0.0180481 5.50724
RightShoulder  5.24267 10.2052 32.3001
RightArm  1.46063 -23.8297 15.3683
RightForeArm  83.543 77.0902 117.222
RightHand  -1.22903 1.57214 -20.1777
LeftUpLeg  -0.0426107 5.61506 -2.21058
LeftLeg  9.14035 11.8704 -3.60078
LeftFoot  -6.368 -0.0899352 2.95484
LeftToes  1.06246e-005 4.65855e-005 -8.18503e-006
256
root  -12.66 40.5712 -5.83815 -125.079 -86.997 121.224
RightUpLeg  -1.67976 -12.889 -16.4421
RightLeg  5.90629 -1.07684 1.37104
RightFoot  1.04549 -0.978715 9.06708
RightToes  0.00048216 0.542163 -0.142577
Spine  0.0772296 1.58906 6.19353
Spine1  19.303 4.2666 -7.61046
HEad  -15.158 1.29583 1.93525
LeftShoulder1  8.56457 -15.2108 -39.5369
LeftArm  12.7972 29.4591 6.82753
LeftForeArm  -171.901 -68.4044 -157.514
LeftHand  -0.25398 0.0180481 5.50724
RightShoulder  4.9376 10.0304 30.5257
RightArm  13.9591 -25.4638 10.8972
RightForeArm  122.828 77.3206 126.334
RightHand  -0.693885 0.810999 -13.5286
LeftUpLeg  0.47349 5.66481 -2.00136
LeftLeg  9.01357 11.9615 -3.65391
LeftFoot  -6.58427 -0.0744415 2.74375
LeftToes  1.06246e-005 4.65855e-005 -8.18503e-006
